<svg width="24" height="25" viewBox="0 0 24 25" fill="none" xmlns="http://www.w3.org/2000/svg">
<g clip-path="url(#clip0_2402_1050)">
<path d="M12 2.01562C6.48 2.01562 2 6.49563 2 12.0156C2 17.5356 6.48 22.0156 12 22.0156C17.52 22.0156 22 17.5356 22 12.0156C22 6.49563 17.52 2.01562 12 2.01562ZM12 5.01562C13.66 5.01562 15 6.35563 15 8.01562C15 9.67562 13.66 11.0156 12 11.0156C10.34 11.0156 9 9.67562 9 8.01562C9 6.35563 10.34 5.01562 12 5.01562ZM12 19.2156C9.5 19.2156 7.29 17.9356 6 15.9956C6.03 14.0056 10 12.9156 12 12.9156C13.99 12.9156 17.97 14.0056 18 15.9956C16.71 17.9356 14.5 19.2156 12 19.2156Z" fill="#800080"/>
</g>
<defs>
<clipPath id="clip0_2402_1050">
<rect width="24" height="24" fill="white" transform="translate(0 0.015625)"/>
</clipPath>
</defs>
</svg>
