<svg width="32" height="32" viewBox="0 0 32 32" fill="none" xmlns="http://www.w3.org/2000/svg">
<path d="M27.9847 16.3174L29.4567 13.7734C29.6336 13.4673 29.6817 13.1035 29.5904 12.762C29.4992 12.4204 29.276 12.1291 28.97 11.952L26.4233 10.48V7.54671C26.4233 7.19309 26.2829 6.85395 26.0328 6.6039C25.7828 6.35386 25.4436 6.21338 25.09 6.21338H22.158L20.6873 3.66805C20.5097 3.3626 20.219 3.13939 19.878 3.04671C19.7089 3.00087 19.5324 2.98905 19.3586 3.01193C19.1849 3.03482 19.0175 3.09196 18.866 3.18005L16.3193 4.65205L13.7727 3.17871C13.4664 3.00191 13.1025 2.954 12.7609 3.04552C12.4194 3.13703 12.1281 3.36048 11.9513 3.66671L10.4793 6.21338H7.54733C7.19371 6.21338 6.85457 6.35386 6.60452 6.6039C6.35448 6.85395 6.214 7.19309 6.214 7.54671V10.4787L3.66733 11.9507C3.51538 12.0381 3.38219 12.1547 3.27542 12.2937C3.16865 12.4328 3.09041 12.5915 3.04518 12.7609C2.99996 12.9303 2.98865 13.1069 3.0119 13.2807C3.03515 13.4544 3.0925 13.6219 3.18067 13.7734L4.65267 16.3174L3.18067 18.8614C3.00465 19.1677 2.95689 19.5313 3.04781 19.8727C3.13873 20.2141 3.36094 20.5058 3.666 20.684L6.21267 22.156V25.088C6.21267 25.4417 6.35314 25.7808 6.60319 26.0309C6.85324 26.2809 7.19238 26.4214 7.546 26.4214H10.4793L11.9513 28.968C12.0694 29.1698 12.2379 29.3374 12.4404 29.4543C12.6428 29.5712 12.8722 29.6334 13.106 29.6347C13.338 29.6347 13.5687 29.5734 13.774 29.4547L16.318 27.9827L18.8647 29.4547C19.1708 29.6313 19.5345 29.6792 19.876 29.5879C20.2174 29.4967 20.5087 29.2738 20.686 28.968L22.1567 26.4214H25.0887C25.4423 26.4214 25.7814 26.2809 26.0315 26.0309C26.2815 25.7808 26.422 25.4417 26.422 25.088V22.156L28.9687 20.684C29.1204 20.5964 29.2533 20.4797 29.3599 20.3406C29.4664 20.2016 29.5445 20.0428 29.5897 19.8736C29.6349 19.7043 29.6463 19.5278 29.6233 19.3541C29.6002 19.1804 29.5431 19.013 29.4553 18.8614L27.9847 16.3174ZM12.9847 9.63738C13.5153 9.63756 14.0241 9.84851 14.3992 10.2238C14.7742 10.5992 14.9848 11.1081 14.9847 11.6387C14.9845 12.1693 14.7735 12.6781 14.3982 13.0532C14.0229 13.4283 13.5139 13.6389 12.9833 13.6387C12.4527 13.6385 11.9439 13.4276 11.5688 13.0523C11.1938 12.6769 10.9832 12.168 10.9833 11.6374C10.9835 11.1068 11.1945 10.598 11.5698 10.2229C11.9451 9.84782 12.4541 9.6372 12.9847 9.63738ZM13.3847 22.4374L11.2513 20.8387L19.2513 10.172L21.3847 11.7707L13.3847 22.4374ZM19.6513 22.9707C19.3886 22.9706 19.1285 22.9188 18.8858 22.8182C18.6431 22.7175 18.4226 22.5701 18.2368 22.3843C18.0511 22.1984 17.9038 21.9778 17.8034 21.7351C17.7029 21.4923 17.6512 21.2321 17.6513 20.9694C17.6514 20.7066 17.7033 20.4465 17.8039 20.2038C17.9045 19.9611 18.0519 19.7406 18.2378 19.5549C18.4236 19.3692 18.6442 19.2219 18.887 19.1214C19.1298 19.021 19.3899 18.9693 19.6527 18.9694C20.1833 18.9696 20.6921 19.1805 21.0672 19.5558C21.4422 19.9312 21.6528 20.4401 21.6527 20.9707C21.6525 21.5013 21.4415 22.0101 21.0662 22.3852C20.6909 22.7603 20.1819 22.9709 19.6513 22.9707Z" fill="url(#paint0_linear_2402_1025)"/>
<defs>
<linearGradient id="paint0_linear_2402_1025" x1="29.6356" y1="16.3174" x2="3.00015" y2="16.3174" gradientUnits="userSpaceOnUse">
<stop stop-color="#800080"/>
<stop offset="1" stop-color="#FF864C"/>
</linearGradient>
</defs>
</svg>
