<svg width="32" height="32" viewBox="0 0 32 32" fill="none" xmlns="http://www.w3.org/2000/svg">
<g clip-path="url(#clip0_2402_1034)">
<path d="M28.5467 15.44L16.5467 3.44C16.0667 2.96 15.4 2.66667 14.6667 2.66667H5.33333C3.86666 2.66667 2.66666 3.86667 2.66666 5.33333V14.6667C2.66666 15.4 2.96 16.0667 3.45333 16.56L15.4533 28.56C15.9333 29.04 16.6 29.3333 17.3333 29.3333C18.0667 29.3333 18.7333 29.04 19.2133 28.5467L28.5467 19.2133C29.04 18.7333 29.3333 18.0667 29.3333 17.3333C29.3333 16.6 29.0267 15.92 28.5467 15.44ZM7.33333 9.33333C6.22666 9.33333 5.33333 8.44 5.33333 7.33333C5.33333 6.22667 6.22666 5.33333 7.33333 5.33333C8.44 5.33333 9.33333 6.22667 9.33333 7.33333C9.33333 8.44 8.44 9.33333 7.33333 9.33333Z" fill="url(#paint0_linear_2402_1034)"/>
</g>
<defs>
<linearGradient id="paint0_linear_2402_1034" x1="29.3333" y1="16" x2="2.66666" y2="16" gradientUnits="userSpaceOnUse">
<stop stop-color="#800080"/>
<stop offset="1" stop-color="#FF864C"/>
</linearGradient>
<clipPath id="clip0_2402_1034">
<rect width="32" height="32" fill="white"/>
</clipPath>
</defs>
</svg>
